<svg width="24" height="24" viewBox="0 0 24 24" fill="none" xmlns="http://www.w3.org/2000/svg">
<g clip-path="url(#clip0_24_1920)">
<path fill-rule="evenodd" clip-rule="evenodd" d="M13.5712 15C12.1672 15 10.5442 13.344 9.54424 12C10.5452 10.655 12.1682 9 13.5712 9C14.9752 9 16.5982 10.656 17.5982 12C16.5972 13.345 14.9752 15 13.5712 15ZM6.00024 12.879V11.121L6.62824 12L6.00024 12.879ZM13.5712 7C13.5222 7 13.4752 7.011 13.4262 7.013L11.7072 5.293C11.3162 4.902 10.6832 4.902 10.2932 5.293C9.90224 5.684 9.90224 6.316 10.2932 6.707L11.2622 7.677C9.93724 8.427 8.82724 9.65 8.09324 10.611L5.81424 7.419C5.56124 7.065 5.11024 6.915 4.69524 7.048C4.28024 7.181 4.00024 7.565 4.00024 8V16C4.00024 16.435 4.28024 16.819 4.69524 16.952C4.79524 16.984 4.89824 17 5.00024 17C5.31724 17 5.62224 16.849 5.81424 16.581L8.09324 13.389C8.82724 14.35 9.93724 15.573 11.2622 16.323L10.2932 17.293C9.90224 17.684 9.90224 18.316 10.2932 18.707C10.4882 18.902 10.7442 19 11.0002 19C11.2562 19 11.5112 18.902 11.7072 18.707L13.4262 16.987C13.4752 16.989 13.5222 17 13.5712 17C17.1222 17 20.0002 12 20.0002 12C20.0002 12 17.1222 7 13.5712 7ZM22.0002 20.559C22.0002 21.34 21.5432 22 21.0022 22H2.99724C2.45724 22 2.00024 21.34 2.00024 20.559V3.438C2.00024 2.659 2.45624 2 2.99524 2H21.0042C21.5442 2 22.0002 2.659 22.0002 3.438V20.559ZM21.0042 0H2.99524C1.34324 0 0.000244141 1.543 0.000244141 3.438V20.559C0.000244141 22.456 1.34424 24 2.99724 24H21.0022C22.6552 24 24.0002 22.456 24.0002 20.559V3.438C24.0002 1.543 22.6562 0 21.0042 0Z" fill="#1E2324"/>
</g>
<defs>
<clipPath id="clip0_24_1920">
<rect width="24" height="24" fill="white"/>
</clipPath>
</defs>
</svg>
