<svg width="24" height="24" viewBox="0 0 24 24" fill="none" xmlns="http://www.w3.org/2000/svg">
<path fill-rule="evenodd" clip-rule="evenodd" d="M5.25 17.25C4.83579 17.25 4.5 17.5858 4.5 18C4.5 18.4142 4.83579 18.75 5.25 18.75H12.75C13.1642 18.75 13.5 18.4142 13.5 18C13.5 17.5858 13.1642 17.25 12.75 17.25H5.25ZM5.25 11.25C4.83579 11.25 4.5 11.5858 4.5 12C4.5 12.4142 4.83579 12.75 5.25 12.75H12.75C13.1642 12.75 13.5 12.4142 13.5 12C13.5 11.5858 13.1642 11.25 12.75 11.25H5.25ZM17.25 15.75C16.8358 15.75 16.5 16.0858 16.5 16.5V17.25H15.75C15.3358 17.25 15 17.5858 15 18C15 18.4142 15.3358 18.75 15.75 18.75H16.5V19.5C16.5 19.9142 16.8358 20.25 17.25 20.25C17.6642 20.25 18 19.9142 18 19.5V18.75H18.75C19.1642 18.75 19.5 18.4142 19.5 18C19.5 17.5858 19.1642 17.25 18.75 17.25H18V16.5C18 16.0858 17.6642 15.75 17.25 15.75ZM17.25 9.75C16.8358 9.75 16.5 10.0858 16.5 10.5V11.25H15.75C15.3358 11.25 15 11.5858 15 12C15 12.4142 15.3358 12.75 15.75 12.75H16.5V13.5C16.5 13.9142 16.8358 14.25 17.25 14.25C17.6642 14.25 18 13.9142 18 13.5V12.75H18.75C19.1642 12.75 19.5 12.4142 19.5 12C19.5 11.5858 19.1642 11.25 18.75 11.25H18V10.5C18 10.0858 17.6642 9.75 17.25 9.75ZM17.25 3.75C16.8358 3.75 16.5 4.08579 16.5 4.5V5.25H15.75C15.3358 5.25 15 5.58579 15 6C15 6.41421 15.3358 6.75 15.75 6.75H16.5V7.5C16.5 7.91421 16.8358 8.25 17.25 8.25C17.6642 8.25 18 7.91421 18 7.5V6.75H18.75C19.1642 6.75 19.5 6.41421 19.5 6C19.5 5.58579 19.1642 5.25 18.75 5.25H18V4.5C18 4.08579 17.6642 3.75 17.25 3.75ZM5.25 5.25C4.83579 5.25 4.5 5.58579 4.5 6C4.5 6.41421 4.83579 6.75 5.25 6.75H12.75C13.1642 6.75 13.5 6.41421 13.5 6C13.5 5.58579 13.1642 5.25 12.75 5.25H5.25Z" fill="#787473"/>
</svg>
