<svg width="24" height="24" viewBox="0 0 24 24" fill="none" xmlns="http://www.w3.org/2000/svg">
<path d="M8 2.5041C8 2.23901 7.89464 1.98478 7.70711 1.79733C7.51957 1.60988 7.26522 1.50458 7 1.50458C6.73478 1.50458 6.48043 1.60988 6.29289 1.79733C6.10536 1.98478 6 2.23901 6 2.5041V5.17283C6.03144 5.66454 5.95862 6.15734 5.78629 6.61896C5.61396 7.08059 5.34601 7.50062 5 7.85155V2.5041C5 2.23901 4.89464 1.98478 4.70711 1.79733C4.51957 1.60988 4.26522 1.50458 4 1.50458C3.73478 1.50458 3.48043 1.60988 3.29289 1.79733C3.10536 1.98478 3 2.23901 3 2.5041V7.85155C2.65399 7.50062 2.38604 7.08059 2.21371 6.61896C2.04138 6.15734 1.96856 5.66454 2 5.17283V2.5041C2 2.23901 1.89464 1.98478 1.70711 1.79733C1.51957 1.60988 1.26522 1.50458 1 1.50458C0.734784 1.50458 0.48043 1.60988 0.292893 1.79733C0.105357 1.98478 0 2.23901 0 2.5041V5.17283C0 7.72161 1.17 9.54075 3 10.0305V21.505C3 21.7701 3.10536 22.0244 3.29289 22.2118C3.48043 22.3993 3.73478 22.5046 4 22.5046C4.26522 22.5046 4.51957 22.3993 4.70711 22.2118C4.89464 22.0244 5 21.7701 5 21.505V10.0305C6.83 9.54075 8 7.72161 8 5.17283V2.5041Z" fill="#343434"/>
<path d="M9.21 11.2299C10.0302 10.6639 11.0033 10.3607 12 10.3607C12.9967 10.3607 13.9698 10.6639 14.79 11.2299C14.9658 11.3618 15.1802 11.432 15.4 11.4298C15.6074 11.4272 15.8088 11.3601 15.9763 11.2379C16.1438 11.1158 16.2692 10.9446 16.3352 10.7481C16.4011 10.5515 16.4042 10.3394 16.3442 10.141C16.2841 9.94259 16.1638 9.76776 16 9.6407C14.8383 8.79416 13.4377 8.33804 12 8.33804C10.5623 8.33804 9.16173 8.79416 8 9.6407C7.78915 9.80241 7.65121 10.0412 7.61652 10.3046C7.58182 10.5679 7.65322 10.8343 7.815 11.045C7.97678 11.2558 8.2157 11.3937 8.47919 11.4283C8.74267 11.463 9.00915 11.3917 9.22 11.2299H9.21Z" fill="#343434"/>
<path d="M14.06 11.9396C13.6967 11.8793 13.3245 11.9001 12.9701 12.0003C12.6157 12.1005 12.2879 12.2777 12.01 12.5193C11.736 12.2845 11.4148 12.1112 11.068 12.0111C10.7213 11.9111 10.357 11.8867 10 11.9396C9.54081 12.0051 9.10874 12.1964 8.75175 12.4924C8.39476 12.7884 8.12681 13.1775 7.97765 13.6165C7.82849 14.0555 7.80395 14.5272 7.90674 14.9793C8.00954 15.4314 8.23566 15.8462 8.56 16.1776L11.41 19.1762C11.5727 19.3178 11.7847 19.3896 12 19.3761C12.225 19.3744 12.4404 19.2847 12.6 19.1262L15.43 16.1776C15.8013 15.8018 16.0461 15.3197 16.1303 14.7984C16.2146 14.2771 16.134 13.7424 15.9 13.269C15.7207 12.9175 15.4603 12.6136 15.1404 12.3825C14.8205 12.1513 14.4502 11.9995 14.06 11.9396ZM12 17.2771L10 15.1181C9.89954 15.0152 9.82911 14.8868 9.79628 14.7468C9.76346 14.6068 9.76951 14.4606 9.81376 14.3237C9.85801 14.1869 9.93879 14.0648 10.0474 13.9705C10.156 13.8762 10.2883 13.8134 10.43 13.7887H10.55C10.6525 13.7874 10.7542 13.8072 10.8488 13.8467C10.9434 13.8862 11.0289 13.9448 11.1 14.0186L11.53 14.4484C11.6015 14.52 11.6865 14.5769 11.78 14.6156C11.8735 14.6544 11.9738 14.6744 12.075 14.6744C12.1762 14.6744 12.2765 14.6544 12.37 14.6156C12.4635 14.5769 12.5485 14.52 12.62 14.4484L13.05 14.0186C13.137 13.9326 13.2428 13.868 13.3591 13.8298C13.4754 13.7916 13.5989 13.781 13.72 13.7987C13.8436 13.8199 13.9605 13.8698 14.0613 13.9445C14.162 14.0192 14.2438 14.1164 14.3 14.2285C14.3678 14.3792 14.3859 14.5476 14.3518 14.7093C14.3176 14.871 14.233 15.0176 14.11 15.1281L12 17.2771Z" fill="#343434"/>
<path d="M14.79 19.606C13.9698 20.172 12.9967 20.4752 12 20.4752C11.0033 20.4752 10.0302 20.172 9.21 19.606C9.03807 19.4634 8.82332 19.3824 8.6 19.3761C8.38482 19.37 8.17342 19.4335 7.99723 19.5571C7.82104 19.6807 7.68947 19.8579 7.62207 20.0622C7.55467 20.2666 7.55504 20.4872 7.62313 20.6913C7.69122 20.8955 7.82339 21.0722 8 21.1952C9.16173 22.0417 10.5623 22.4979 12 22.4979C13.4377 22.4979 14.8383 22.0417 16 21.1952C16.2108 21.0335 16.3488 20.7947 16.3835 20.5313C16.4182 20.268 16.3468 20.0016 16.185 19.7909C16.0232 19.5801 15.7843 19.4422 15.5208 19.4076C15.2573 19.3729 14.9908 19.4442 14.78 19.606H14.79Z" fill="#343434"/>
<path d="M19.7 1.50457C19.5773 1.49222 19.4533 1.50495 19.3356 1.54197C19.218 1.579 19.109 1.63955 19.0155 1.71995C18.922 1.80035 18.8458 1.89891 18.7915 2.00966C18.7373 2.1204 18.7062 2.24101 18.7 2.36416V21.505C18.7 21.7701 18.8054 22.0244 18.9929 22.2118C19.1804 22.3993 19.4348 22.5046 19.7 22.5046C19.9652 22.5046 20.2196 22.3993 20.4071 22.2118C20.5946 22.0244 20.7 21.7701 20.7 21.505V15.378C22.53 14.9382 24 13.3889 24 9.6407C24 6.12238 22.1 1.50457 19.7 1.50457ZM20.7 13.0791V4.08334C21.5 5.5 22 7.5 22.2 9.57073C22.28 11.5698 21.67 12.5893 20.7 13.0791Z" fill="#343434"/>
</svg>
